<svg width="220" height="72" viewBox="0 0 220 72" fill="none" xmlns="http://www.w3.org/2000/svg">
<path fill-rule="evenodd" clip-rule="evenodd" d="M92.594 30.2417L93.0777 29.5528C93.4795 28.9832 93.962 28.4808 94.5312 28.0804C95.0794 27.6937 95.6785 27.3965 96.3197 27.2012C96.9435 27.011 97.5897 26.9016 98.2433 26.9016C99.3893 26.9016 100.503 27.1391 101.483 27.7583C102.33 28.2956 102.974 29.0081 103.325 29.9594L103.509 30.4618L103.797 30.0104C104.469 28.9571 105.359 28.1401 106.508 27.6402C107.623 27.154 108.792 26.9016 110.007 26.9016C111.297 26.9016 112.715 27.0993 113.812 27.8255C114.699 28.4124 115.365 29.1822 115.764 30.1745C116.164 31.1656 116.365 32.204 116.365 33.2721V43.913C116.365 44.1506 116.172 44.3433 115.934 44.3433H112.29C112.053 44.3433 111.86 44.1506 111.86 43.913V34.7233C111.86 33.726 111.612 32.7747 110.95 32.0075C110.269 31.2203 109.309 30.948 108.298 30.948C107.61 30.948 106.946 31.096 106.342 31.4317C105.774 31.7463 105.307 32.1778 104.967 32.7362C104.624 33.2995 104.479 33.9287 104.479 34.5853V43.913C104.479 44.1506 104.287 44.3433 104.049 44.3433H100.405C100.167 44.3433 99.9747 44.1506 99.9747 43.913V34.7233C99.9747 33.726 99.7291 32.7698 99.0631 32.0075C98.3785 31.2241 97.4235 30.948 96.4127 30.948C95.7194 30.948 95.0459 31.091 94.437 31.4317C93.8739 31.7476 93.4162 32.1828 93.0801 32.7362C92.7391 33.2995 92.5927 33.9312 92.5927 34.5853V43.913C92.5927 44.1506 92.4001 44.3433 92.1625 44.3433H88.5184C88.2808 44.3433 88.0881 44.1506 88.0881 43.913V27.8503C88.0881 27.6127 88.2808 27.4201 88.5184 27.4201H92.1625C92.4001 27.4201 92.5927 27.6127 92.5927 27.8503V30.2429L92.594 30.2417ZM207.756 33.3223C207.756 33.5832 208.076 33.7086 208.253 33.5172L213.771 27.5568C213.853 27.4689 213.967 27.4189 214.087 27.4189H218.107C218.478 27.4189 218.675 27.8556 218.43 28.1335L213.353 33.8966C213.268 33.9929 213.257 34.1337 213.327 34.2415L219.406 43.6801C219.591 43.9664 219.385 44.3433 219.045 44.3433H214.725C214.575 44.3433 214.437 44.2658 214.358 44.1387L210.126 37.2682C210.027 37.1085 209.805 37.0846 209.675 37.2197L207.836 39.1304C207.785 39.1839 207.756 39.2551 207.756 39.3293V43.913C207.756 44.1506 207.563 44.3433 207.326 44.3433H203.682C203.444 44.3433 203.252 44.1506 203.252 43.913V20.4178C203.252 20.1802 203.444 19.9875 203.682 19.9875H207.326C207.563 19.9875 207.756 20.1802 207.756 20.4178V33.3223ZM187.034 29.9121L187.513 29.2854C188.112 28.497 188.853 27.8591 189.769 27.4674C190.653 27.0881 191.583 26.9016 192.543 26.9016C193.876 26.9016 195.252 27.1291 196.408 27.8305C197.369 28.4149 198.144 29.1834 198.655 30.1944C199.143 31.1606 199.402 32.1865 199.402 33.2709V43.9118C199.402 44.1494 199.209 44.342 198.972 44.342H195.327C195.09 44.342 194.897 44.1494 194.897 43.9118V34.844C194.897 33.7919 194.624 32.7971 193.894 32.0174C193.143 31.2166 192.109 30.9468 191.044 30.9468C190.306 30.9468 189.601 31.1109 188.961 31.4852C188.35 31.8408 187.867 32.3296 187.533 32.9538C187.173 33.6216 187.035 34.3665 187.035 35.12V43.9106C187.035 44.1482 186.843 44.3408 186.605 44.3408H182.961C182.723 44.3408 182.531 44.1482 182.531 43.9106V27.8478C182.531 27.6102 182.723 27.4176 182.961 27.4176H186.605C186.843 27.4176 187.035 27.6102 187.035 27.8478V29.9091C187.035 29.9103 187.035 29.9113 187.034 29.9121ZM174.83 41.6473L174.352 42.2715C173.872 42.897 173.278 43.4119 172.611 43.8297C171.393 44.5907 169.979 44.8606 168.56 44.8606C167.026 44.8606 165.557 44.5273 164.228 43.7389C162.932 42.9704 161.939 41.8997 161.223 40.5754C160.439 39.1267 160.133 37.5175 160.133 35.8798C160.133 34.6363 160.309 33.3915 160.753 32.2251C161.157 31.1681 161.748 30.2143 162.527 29.3936C163.286 28.594 164.18 27.9785 165.194 27.5544C166.267 27.108 167.4 26.9016 168.559 26.9016C169.978 26.9016 171.393 27.1726 172.61 27.9324C173.277 28.349 173.871 28.8626 174.351 29.4906L174.829 30.1148V27.8491C174.829 27.6115 175.021 27.4189 175.259 27.4189H178.247C178.485 27.4189 178.677 27.6115 178.677 27.8491V43.9118C178.677 44.1494 178.485 44.342 178.247 44.342H175.259C175.021 44.342 174.829 44.1493 174.829 43.9116L174.83 41.6473ZM143.675 29.3202L144.12 28.9061C144.617 28.4448 145.171 28.0506 145.772 27.7347C146.906 27.1403 148.153 26.9016 149.426 26.9016C150.997 26.9016 152.497 27.2535 153.84 28.0879C155.135 28.8924 156.133 29.978 156.851 31.3235C157.608 32.7399 157.941 34.2794 157.941 35.8811C157.941 37.1321 157.747 38.3669 157.303 39.537C156.902 40.5903 156.328 41.5528 155.548 42.3673C154.786 43.1644 153.887 43.7762 152.876 44.2077C151.808 44.6641 150.671 44.8606 149.514 44.8606C148.516 44.8606 147.525 44.7138 146.586 44.3756C145.752 44.0734 144.973 43.6519 144.309 43.0612C144.018 42.8025 143.751 42.5178 143.515 42.2081L143.037 41.5814V43.913C143.037 44.1506 142.845 44.3433 142.607 44.3433H139.619C139.382 44.3433 139.189 44.1506 139.189 43.913V20.4178C139.189 20.1802 139.382 19.9875 139.619 19.9875H143.246C143.484 19.9875 143.676 20.1802 143.676 20.4178V29.3215L143.675 29.3202ZM125.133 44.7399L118.669 28.0041C118.56 27.7222 118.768 27.4189 119.071 27.4189H123.023C123.208 27.4189 123.372 27.5372 123.431 27.7126L127.426 39.6571C127.513 39.9194 127.885 39.9178 127.971 39.6547L131.849 27.7162C131.907 27.5389 132.072 27.4189 132.258 27.4189H136.077C136.378 27.4189 136.586 27.7192 136.48 28.0005L129.521 46.502C129.054 47.6821 128.438 48.8921 127.588 49.8421C126.927 50.5795 126.148 51.1876 125.222 51.552C124.329 51.9014 123.396 52.0693 122.438 52.0693C121.726 52.0693 121.016 51.9972 120.319 51.8492C119.741 51.7286 119.182 51.5383 118.653 51.2784C118.596 51.2509 118.566 51.1871 118.582 51.1258L119.467 47.6611C119.488 47.5814 119.574 47.5388 119.65 47.5715C119.915 47.6896 120.192 47.7841 120.474 47.8575C120.9 47.9681 121.34 48.039 121.782 48.039C122.433 48.039 123.088 47.9109 123.636 47.5453C124.2 47.1673 124.535 46.5692 124.742 45.9362L125.133 44.7399ZM169.372 41.0218C170.244 41.0218 171.091 40.8365 171.851 40.3988C172.594 39.971 173.163 39.353 173.572 38.6019C174.029 37.765 174.209 36.8286 174.209 35.8811C174.209 34.9335 174.029 33.9984 173.572 33.1602C173.164 32.4116 172.591 31.806 171.851 31.382C171.088 30.943 170.248 30.7416 169.372 30.7416C168.495 30.7416 167.668 30.9455 166.911 31.382C166.168 31.8085 165.581 32.4079 165.171 33.1602C164.717 33.9921 164.552 34.941 164.552 35.8811C164.552 36.8212 164.717 37.77 165.171 38.6019C165.583 39.3567 166.166 39.9698 166.911 40.3988C167.665 40.8328 168.505 41.0218 169.372 41.0218ZM148.58 41.0218C149.467 41.0218 150.251 40.812 151.109 40.4C151.862 39.9735 152.447 39.3592 152.866 38.6044C153.328 37.7687 153.504 36.8274 153.504 35.8811C153.504 34.9347 153.324 33.9984 152.868 33.1602C152.453 32.4004 151.868 31.7973 151.108 31.3807C150.331 30.9343 149.471 30.7416 148.58 30.7416C147.69 30.7416 146.831 30.9405 146.051 31.3807C145.301 31.806 144.706 32.4029 144.293 33.1602C143.839 33.9921 143.674 34.9397 143.674 35.8811C143.674 36.8224 143.85 37.7712 144.311 38.6044C144.729 39.3592 145.314 39.9735 146.069 40.4C146.84 40.8365 147.698 41.0218 148.58 41.0218Z" fill="white"/>
<g clip-path="url(#clip0_41_120759)">
<path d="M20.4499 53.8237C19.4355 52.9278 18.4939 51.9364 17.6387 50.8632C17.484 50.6722 17.1792 50.7586 17.1519 50.9997L16.2239 59.8037L16.1739 60.2993C16.1693 60.3494 16.1512 60.3948 16.1239 60.4312L13.7993 63.6327C13.7129 63.7509 13.7356 63.9192 13.8494 64.0101C14.6773 64.6695 15.5325 65.288 16.4104 65.8701C16.5333 65.9519 16.697 65.9201 16.7835 65.8018L19.108 62.5958C19.1353 62.5549 19.1762 62.5231 19.2217 62.5049L19.6766 62.3093L27.7374 58.7168C27.9603 58.6168 27.9512 58.2984 27.7192 58.212C26.45 57.7254 25.2264 57.1343 24.0573 56.443C23.9799 56.3976 23.889 56.393 23.8116 56.4294L20.2634 58.0074C20.1997 58.0347 20.127 57.9846 20.1361 57.9164L20.5409 54.051C20.55 53.9646 20.5182 53.8782 20.4499 53.8237Z" fill="white"/>
<path d="M7.1301 56.9543C6.51144 56.0994 5.93372 55.2126 5.39239 54.2985C5.32415 54.1803 5.35145 54.0257 5.46062 53.9393L10.9785 49.6282C11.0513 49.5737 11.0149 49.4554 10.9239 49.4554L3.01328 49.1826C2.89955 49.1826 2.79947 49.1053 2.76308 48.9961L1.52576 45.1944C1.48937 45.0852 1.52576 44.967 1.61674 44.8942L7.85338 40.0193C7.92617 39.9647 7.88978 39.8465 7.7988 39.8465L0.816121 39.6055C0.679652 39.6009 0.565927 39.4918 0.552281 39.3554C0.443105 38.3003 0.393066 37.2408 0.393066 36.1857C0.393066 36.0311 0.524987 35.9038 0.679652 35.9129L12.1886 36.3131C12.3341 36.3176 12.4433 36.4313 12.4478 36.5768C12.4797 37.9047 12.6207 39.2462 12.8845 40.5877C12.9027 40.6878 12.8664 40.7878 12.7845 40.8515L6.88445 45.4581C6.81167 45.5127 6.84806 45.6309 6.93904 45.6309L14.4176 45.8902C14.5176 45.8902 14.6086 45.9538 14.6541 46.0493C15.2273 47.2908 15.896 48.4641 16.6556 49.56C16.7375 49.6782 16.7148 49.8374 16.6011 49.9284L7.52586 57.0134C7.40304 57.1089 7.22563 57.0862 7.13465 56.9588L7.1301 56.9543Z" fill="white"/>
<path d="M14.3313 26.7433C14.8726 25.5018 15.5186 24.3012 16.2783 23.1553C16.4147 22.9506 16.2373 22.6869 15.9962 22.7369L7.33499 24.5741L6.84825 24.6787C6.80276 24.6878 6.75272 24.6878 6.70723 24.6696L2.94523 23.4509C2.80421 23.4054 2.6541 23.4781 2.60406 23.6146C2.23559 24.6059 1.90807 25.6064 1.62603 26.625C1.58509 26.766 1.66697 26.9161 1.80799 26.9615L5.57454 28.1803C5.62003 28.1939 5.66097 28.2212 5.69281 28.2576L6.02034 28.6305L11.9295 35.1835C12.0932 35.3654 12.3889 35.2562 12.4025 35.0107C12.4708 33.6555 12.6573 32.3049 12.953 30.9816C12.9712 30.8952 12.953 30.8088 12.8893 30.7405L10.2918 27.8529C10.2463 27.8028 10.2736 27.7164 10.3419 27.7028L14.1448 26.8933C14.2312 26.8751 14.2995 26.816 14.3359 26.7387L14.3313 26.7433Z" fill="white"/>
<path d="M7.24221 15.0411C7.86542 14.1907 8.52957 13.3676 9.23011 12.5672C9.32109 12.4626 9.47576 12.4444 9.58948 12.5217L15.3985 16.4371C15.4759 16.4872 15.5714 16.419 15.5486 16.328L13.3651 8.72454C13.3333 8.6154 13.3742 8.49716 13.4652 8.42895L16.6995 6.07788C16.7905 6.00967 16.9179 6.00967 17.0134 6.07333L23.5776 10.4981C23.6549 10.5481 23.7504 10.4799 23.7277 10.3889L21.7989 3.67224C21.7625 3.54036 21.8262 3.39939 21.9536 3.34482C22.9316 2.9219 23.9233 2.54445 24.9241 2.21703C25.0696 2.16701 25.2289 2.25341 25.2743 2.40348L28.4495 13.4722C28.4905 13.6086 28.4131 13.7541 28.2767 13.7996C27.0212 14.2407 25.7929 14.7909 24.5965 15.4549C24.5056 15.5049 24.4009 15.5004 24.3145 15.4412L18.1097 11.253C18.0324 11.2029 17.9369 11.2712 17.9596 11.3621L20.0203 18.5517C20.0476 18.6518 20.0203 18.7564 19.9429 18.8246C18.9422 19.7523 18.0324 20.7482 17.2227 21.8123C17.1362 21.926 16.977 21.9533 16.8587 21.8714L7.31044 15.4321C7.18307 15.3457 7.15123 15.1684 7.24221 15.0411Z" fill="white"/>
<path d="M38.2184 12.5486C39.5649 12.6759 40.9114 12.926 42.2351 13.2898C42.4717 13.3535 42.6719 13.1079 42.549 12.8942L38.1229 5.22707L37.8727 4.79505C37.8499 4.75413 37.8363 4.7041 37.8363 4.65863V0.702283C37.8363 0.556762 37.718 0.433979 37.5725 0.424884C36.5171 0.379409 35.4617 0.379409 34.4064 0.424884C34.2608 0.429432 34.1425 0.552215 34.1425 0.702283V4.66318C34.1425 4.7132 34.1334 4.75867 34.1061 4.80415L33.8559 5.23162L29.448 12.8715C29.3252 13.0852 29.5208 13.3308 29.7573 13.2671C31.0674 12.9124 32.4094 12.6714 33.7604 12.544C33.8468 12.5349 33.9242 12.4849 33.9697 12.4122L35.9121 9.05154C35.9485 8.99242 36.0349 8.99242 36.0713 9.05154L38.0137 12.4167C38.0592 12.494 38.1365 12.5395 38.223 12.5486H38.2184Z" fill="white"/>
<path d="M47.1581 2.18844C48.1588 2.51586 49.1505 2.8933 50.1285 3.31622C50.2559 3.37079 50.3196 3.51177 50.2832 3.64364L48.3544 10.374C48.3272 10.4604 48.4272 10.5331 48.5046 10.4831L55.0642 6.05383C55.1597 5.99017 55.2825 5.99017 55.3781 6.05838L58.6124 8.40945C58.7034 8.47766 58.7443 8.5959 58.7125 8.70504L56.5335 16.313C56.5062 16.3994 56.6063 16.4722 56.6836 16.4222L62.4745 12.5113C62.5882 12.434 62.7429 12.4522 62.8338 12.5568C63.5389 13.3526 64.2031 14.1803 64.8217 15.0306C64.9127 15.158 64.8809 15.3353 64.7535 15.4217L55.2052 21.861C55.0869 21.9429 54.9277 21.9156 54.8413 21.8019C54.0361 20.7423 53.1309 19.7464 52.1301 18.8142C52.0573 18.746 52.0255 18.6414 52.0528 18.5413L54.118 11.3471C54.1453 11.2607 54.0452 11.188 53.9679 11.238L47.7676 15.4217C47.6812 15.4808 47.572 15.4808 47.4856 15.4308C46.2938 14.7623 45.061 14.2075 43.8055 13.7664C43.669 13.721 43.5962 13.5754 43.6326 13.439L46.8078 2.37034C46.8487 2.22027 47.008 2.13387 47.1581 2.18389V2.18844Z" fill="white"/>
<path d="M59.0916 30.868C59.3872 32.1913 59.5646 33.542 59.6283 34.9153C59.6374 35.1609 59.9377 35.27 60.1014 35.0881L66.0287 28.5124L66.3608 28.1395C66.3927 28.1031 66.4336 28.0758 66.4791 28.0622L70.2411 26.8389C70.3821 26.7934 70.4594 26.6434 70.423 26.5024C70.141 25.4837 69.8135 24.4787 69.445 23.4965C69.395 23.3601 69.2403 23.2873 69.1038 23.3328L65.3373 24.5606C65.2918 24.5742 65.2418 24.5788 65.1917 24.5697L64.705 24.4606L56.071 22.6279C55.8299 22.5779 55.6571 22.8416 55.789 23.0463C56.5305 24.1832 57.1719 25.3837 57.7132 26.6297C57.7496 26.7116 57.8178 26.7707 57.9043 26.7889L61.7027 27.5983C61.7709 27.612 61.7982 27.6984 61.7527 27.7484L59.1507 30.6361C59.0915 30.6998 59.0688 30.7907 59.087 30.8726L59.0916 30.868Z" fill="white"/>
<path d="M71.708 36.166C71.708 37.2211 71.6534 38.2761 71.5533 39.3356C71.5396 39.4721 71.4259 39.5812 71.2894 39.5858L64.2886 39.8313C64.1976 39.8313 64.1612 39.9496 64.234 40.0041L70.4752 44.8745C70.5662 44.9473 70.6026 45.0655 70.5662 45.1747L69.3288 48.9764C69.2925 49.0855 69.1924 49.1629 69.0786 49.1629L61.168 49.4402C61.077 49.4402 61.0406 49.5585 61.1134 49.6131L66.6222 53.9105C66.7314 53.9969 66.7587 54.1469 66.6904 54.2697C66.1491 55.1883 65.5668 56.0705 64.9527 56.9255C64.8618 57.0528 64.6843 57.0755 64.5615 56.98L55.4863 49.895C55.3726 49.8086 55.3498 49.6449 55.4317 49.5267C56.1869 48.4352 56.8601 47.2665 57.4378 46.0251C57.4788 45.9341 57.5697 45.8704 57.6744 45.8704L65.1574 45.6112C65.2484 45.6112 65.2848 45.493 65.212 45.4384L59.3166 40.8363C59.2347 40.7727 59.1983 40.6726 59.2165 40.5726C59.4803 39.2311 59.6304 37.8895 59.6623 36.5571C59.6623 36.4116 59.7805 36.2979 59.9216 36.2934L71.4305 35.8932C71.5851 35.8886 71.7171 36.0114 71.7171 36.166H71.708Z" fill="white"/>
<path d="M48.1128 56.374C46.9483 57.0607 45.7155 57.6519 44.4281 58.1339C44.1961 58.2203 44.187 58.5387 44.4099 58.6387L52.498 62.2403L52.9529 62.4404C52.9984 62.4586 53.0348 62.4905 53.0621 62.5314L55.3912 65.7283C55.4776 65.8465 55.6414 65.8784 55.7642 65.7965C56.6467 65.2144 57.4973 64.5914 58.3252 63.9366C58.439 63.8456 58.4617 63.6774 58.3753 63.5591L56.0462 60.3577C56.0189 60.3167 56.0007 60.2713 55.9962 60.2212L55.9507 59.7256L55.0227 50.9534C54.9954 50.7078 54.6906 50.6214 54.536 50.8124C53.6807 51.8674 52.7391 52.8497 51.7201 53.7501C51.6564 53.8092 51.6201 53.8911 51.6292 53.982L52.034 57.8429C52.0431 57.9111 51.9703 57.9657 51.9066 57.9338L48.3584 56.3559C48.2766 56.3195 48.1856 56.324 48.1128 56.3695V56.374Z" fill="white"/>
<path d="M46.9713 70.006C45.9705 70.3289 44.947 70.6063 43.9053 70.8382C43.7688 70.8701 43.6324 70.7927 43.5869 70.6654L41.1896 64.0852C41.1577 63.9987 41.0394 63.9987 41.0076 64.0852L38.301 71.5204C38.26 71.6295 38.1599 71.6977 38.0462 71.6977H34.0477C33.9339 71.6977 33.8293 71.6249 33.7929 71.5204L31.0817 64.0852C31.0499 63.9987 30.9316 63.9987 30.8998 64.0852L28.5116 70.6518C28.4661 70.7791 28.3296 70.8564 28.1931 70.8291C27.156 70.5972 26.1325 70.3198 25.1271 69.9969C24.977 69.9515 24.8997 69.7877 24.9543 69.6422L28.8891 58.8237C28.9392 58.6872 29.0847 58.6145 29.2212 58.66C30.4949 59.0419 31.8141 59.3193 33.1697 59.4831C33.2698 59.4967 33.3562 59.5604 33.3926 59.6559L35.9491 66.6909C35.981 66.7773 36.0993 66.7773 36.1311 66.6909L38.6876 59.665C38.724 59.5695 38.8104 59.5013 38.9105 59.4922C40.2661 59.333 41.5899 59.0556 42.8681 58.6781C43.0046 58.6372 43.1502 58.71 43.2002 58.8419L47.1351 69.6604C47.1897 69.8059 47.1078 69.9696 46.9622 70.0151L46.9713 70.006Z" fill="white"/>
</g>
<defs>
<clipPath id="clip0_41_120759">
<rect width="71.7037" height="71.7037" fill="white" transform="translate(0 0.000396729)"/>
</clipPath>
</defs>
</svg>
