<svg width="0" height="0" class="hidden">
  <symbol fill="none" xmlns="http://www.w3.org/2000/svg" viewBox="0 0 24 24" id="trash">
    <path d="M21.07 5.23C19.46 5.07 17.85 4.95 16.23 4.86V4.85L16.01 3.55C15.86 2.63 15.64 1.25 13.3 1.25H10.68C8.35 1.25 8.13 2.57 7.97 3.54L7.76 4.82C6.83 4.88 5.9 4.94 4.97 5.03L2.93 5.23C2.51 5.27 2.21 5.64 2.25 6.05C2.29 6.46 2.65 6.76 3.07 6.72L5.11 6.52C10.35 6 15.63 6.2 20.93 6.73C20.96 6.73 20.98 6.73 21.01 6.73C21.39 6.73 21.72 6.44 21.76 6.05C21.79 5.64 21.49 5.27 21.07 5.23Z" fill="red"></path>
    <path d="M19.23 8.14C18.99 7.89 18.66 7.75 18.32 7.75H5.68C5.34 7.75 5 7.89 4.77 8.14C4.54 8.39 4.41 8.73 4.43 9.08L5.05 19.34C5.16 20.86 5.3 22.76 8.79 22.76H15.21C18.7 22.76 18.84 20.87 18.95 19.34L19.57 9.09C19.59 8.73 19.46 8.39 19.23 8.14ZM13.66 17.75H10.33C9.92 17.75 9.58 17.41 9.58 17C9.58 16.59 9.92 16.25 10.33 16.25H13.66C14.07 16.25 14.41 16.59 14.41 17C14.41 17.41 14.07 17.75 13.66 17.75ZM14.5 13.75H9.5C9.09 13.75 8.75 13.41 8.75 13C8.75 12.59 9.09 12.25 9.5 12.25H14.5C14.91 12.25 15.25 12.59 15.25 13C15.25 13.41 14.91 13.75 14.5 13.75Z" fill="red"></path>
  </symbol>
  <symbol fill="none" xmlns="http://www.w3.org/2000/svg" viewBox="0 0 24 24" id="info">
    <path d="M12 2C6.49 2 2 6.49 2 12C2 17.51 6.49 22 12 22C17.51 22 22 17.51 22 12C22 6.49 17.51 2 12 2ZM11.25 8C11.25 7.59 11.59 7.25 12 7.25C12.41 7.25 12.75 7.59 12.75 8V13C12.75 13.41 12.41 13.75 12 13.75C11.59 13.75 11.25 13.41 11.25 13V8ZM12.92 16.38C12.87 16.51 12.8 16.61 12.71 16.71C12.61 16.8 12.5 16.87 12.38 16.92C12.26 16.97 12.13 17 12 17C11.87 17 11.74 16.97 11.62 16.92C11.5 16.87 11.39 16.8 11.29 16.71C11.2 16.61 11.13 16.51 11.08 16.38C11.03 16.26 11 16.13 11 16C11 15.87 11.03 15.74 11.08 15.62C11.13 15.5 11.2 15.39 11.29 15.29C11.39 15.2 11.5 15.13 11.62 15.08C11.86 14.98 12.14 14.98 12.38 15.08C12.5 15.13 12.61 15.2 12.71 15.29C12.8 15.39 12.87 15.5 12.92 15.62C12.97 15.74 13 15.87 13 16C13 16.13 12.97 16.26 12.92 16.38Z" fill="black"></path>
  </symbol>
  <symbol fill="none" xmlns="http://www.w3.org/2000/svg" viewBox="0 0 24 24" id="setting-2">
    <path d="M20.1 9.21994C18.29 9.21994 17.55 7.93994 18.45 6.36994C18.97 5.45994 18.66 4.29994 17.75 3.77994L16.02 2.78994C15.23 2.31994 14.21 2.59994 13.74 3.38994L13.63 3.57994C12.73 5.14994 11.25 5.14994 10.34 3.57994L10.23 3.38994C9.78 2.59994 8.76 2.31994 7.97 2.78994L6.24 3.77994C5.33 4.29994 5.02 5.46994 5.54 6.37994C6.45 7.93994 5.71 9.21994 3.9 9.21994C2.86 9.21994 2 10.0699 2 11.1199V12.8799C2 13.9199 2.85 14.7799 3.9 14.7799C5.71 14.7799 6.45 16.0599 5.54 17.6299C5.02 18.5399 5.33 19.6999 6.24 20.2199L7.97 21.2099C8.76 21.6799 9.78 21.3999 10.25 20.6099L10.36 20.4199C11.26 18.8499 12.74 18.8499 13.65 20.4199L13.76 20.6099C14.23 21.3999 15.25 21.6799 16.04 21.2099L17.77 20.2199C18.68 19.6999 18.99 18.5299 18.47 17.6299C17.56 16.0599 18.3 14.7799 20.11 14.7799C21.15 14.7799 22.01 13.9299 22.01 12.8799V11.1199C22 10.0799 21.15 9.21994 20.1 9.21994ZM12 15.2499C10.21 15.2499 8.75 13.7899 8.75 11.9999C8.75 10.2099 10.21 8.74994 12 8.74994C13.79 8.74994 15.25 10.2099 15.25 11.9999C15.25 13.7899 13.79 15.2499 12 15.2499Z" fill="black"></path>
  </symbol>
  <symbol fill="none" xmlns="http://www.w3.org/2000/svg" viewBox="0 0 24 24" id="edit">
    <path opacity="0.4" d="M11 2H9C4 2 2 4 2 9V15C2 20 4 22 9 22H15C20 22 22 20 22 15V13" stroke="black" stroke-width="1.5" stroke-linecap="round" stroke-linejoin="round"></path>
    <path d="M16.04 3.02001L8.16 10.9C7.86 11.2 7.56 11.79 7.5 12.22L7.07 15.23C6.91 16.32 7.68 17.08 8.77 16.93L11.78 16.5C12.2 16.44 12.79 16.14 13.1 15.84L20.98 7.96001C22.34 6.60001 22.98 5.02001 20.98 3.02001C18.98 1.02001 17.4 1.66001 16.04 3.02001Z" stroke="black" stroke-width="1.5" stroke-miterlimit="10" stroke-linecap="round" stroke-linejoin="round"></path>
    <path opacity="0.4" d="M14.91 4.15002C15.58 6.54002 17.45 8.41002 19.85 9.09002" stroke="black" stroke-width="1.5" stroke-miterlimit="10" stroke-linecap="round" stroke-linejoin="round"></path>
  </symbol>
</svg>
