<svg width="0" height="0" class="hidden">
    <symbol fill="none" xmlns="http://www.w3.org/2000/svg" viewBox="0 0 24 24" id="wallet">
      <path d="M11.94 2.21008L9.52995 7.82008H7.11995C6.71995 7.82008 6.32995 7.85007 5.94995 7.93007L6.94995 5.53008L6.98995 5.44008L7.04995 5.28008C7.07995 5.21008 7.09995 5.15007 7.12995 5.10008C8.28995 2.41007 9.58995 1.57008 11.94 2.21008Z" fill="white"></path>
      <path d="M18.7301 8.09002L18.7101 8.08002C18.1101 7.91002 17.5001 7.82002 16.8801 7.82002H10.6201L12.8701 2.59002L12.9001 2.52002C13.0401 2.57002 13.1901 2.64002 13.3401 2.69002L15.5501 3.62002C16.7801 4.13002 17.6401 4.66002 18.1701 5.30002C18.2601 5.42002 18.3401 5.53002 18.4201 5.66002C18.5101 5.80002 18.5801 5.94002 18.6201 6.09002C18.6601 6.18002 18.6901 6.26002 18.7101 6.35002C18.8601 6.86002 18.8701 7.44002 18.7301 8.09002Z" fill="white"></path>
      <path d="M18.29 9.52007C17.84 9.39007 17.37 9.32007 16.88 9.32007H7.11999C6.43999 9.32007 5.79999 9.45007 5.19999 9.71007C3.45999 10.4601 2.23999 12.1901 2.23999 14.2001V16.1501C2.23999 16.3901 2.25999 16.6201 2.28999 16.8601C2.50999 20.0401 4.20999 21.7401 7.38999 21.9501C7.61999 21.9801 7.84999 22.0001 8.09999 22.0001H15.9C19.6 22.0001 21.55 20.2401 21.74 16.7401C21.75 16.5501 21.76 16.3501 21.76 16.1501V14.2001C21.76 11.9901 20.29 10.1301 18.29 9.52007Z" fill="white"></path>
    </symbol>
  <symbol fill="none" xmlns="http://www.w3.org/2000/svg" viewBox="0 0 24 24" id="home-hashtag">
    <rect width="24" height="24" fill="#1E1E1E"></rect>
    <g id="Desktop - 2" clip-path="url(#clip0_0_1)">
      <rect width="1440" height="1204" transform="translate(-32 -98)" fill="#EFF0F2"></rect>
      <g id="Frame 427318731">
        <g id="Frame 12">
          <g id="Frame 13">
            <g id="Frame 3" filter="url(#filter0_dd_0_1)">
              <path d="M-16 -6C-16 -12.6274 -10.6274 -18 -4 -18H257C263.627 -18 269 -12.6274 269 -6V30C269 36.6274 263.627 42 257 42H-4C-10.6274 42 -16 36.6274 -16 30V-6Z" fill="white" shape-rendering="crispEdges"></path>
              <g id="Frame 3_2">
                <g id="Frame 4">
                  <g id="vuesax/bold/home-hashtag">
                    <g id="vuesax/bold/home-hashtag_2">
                      <g id="home-hashtag">
                        <path id="Vector" d="M13.4 16.38H13.2V14.59H14.99V14.79C14.99 15.6639 14.2738 16.38 13.4 16.38Z" stroke="white"></path>
                        <path id="Vector_2" d="M10.6 16.38C9.72615 16.38 9.01001 15.6639 9.01001 14.79V14.59H10.8V16.38H10.6Z" stroke="white"></path>
                        <path id="Vector_3" d="M8.51001 12V12.7H11.3V9.91H10.6C9.45001 9.91 8.51001 10.85 8.51001 12Z" fill="white"></path>
                        <path id="Vector_4" d="M20.03 6.82L14.28 2.79C12.71 1.69 10.31 1.75 8.8 2.92L3.79 6.83C2.78 7.61 2 9.21 2 10.47V17.37C2 19.92 4.07 22 6.61 22H17.38C19.92 22 21.99 19.93 21.99 17.38V10.6C22 9.25 21.13 7.59 20.03 6.82ZM16.88 14.79C16.88 16.71 15.31 18.28 13.39 18.28H10.6C8.68 18.28 7.11 16.72 7.11 14.79V12C7.11 10.08 8.68 8.51 10.6 8.51H13.39C15.31 8.51 16.88 10.07 16.88 12V14.79Z" fill="white"></path>
                        <path id="Vector_5" d="M13.4 9.91H12.7V12.7H15.49V12C15.49 10.85 14.55 9.91 13.4 9.91Z" fill="white"></path>
                      </g>
                    </g>
                  </g>
                </g>
              </g>
            </g>
          </g>
        </g>
      </g>
    </g>
    <defs>
      <filter id="filter0_dd_0_1" x="-19" y="-20" width="291" height="66" filterUnits="userSpaceOnUse" color-interpolation-filters="sRGB">
        <feFlood flood-opacity="0" result="BackgroundImageFix"></feFlood>
        <feColorMatrix in="SourceAlpha" type="matrix" values="0 0 0 0 0 0 0 0 0 0 0 0 0 0 0 0 0 0 127 0" result="hardAlpha"></feColorMatrix>
        <feOffset dy="1"></feOffset>
        <feGaussianBlur stdDeviation="1.5"></feGaussianBlur>
        <feComposite in2="hardAlpha" operator="out"></feComposite>
        <feColorMatrix type="matrix" values="0 0 0 0 0.0627451 0 0 0 0 0.0941176 0 0 0 0 0.156863 0 0 0 0.1 0"></feColorMatrix>
        <feBlend mode="normal" in2="BackgroundImageFix" result="effect1_dropShadow_0_1"></feBlend>
        <feColorMatrix in="SourceAlpha" type="matrix" values="0 0 0 0 0 0 0 0 0 0 0 0 0 0 0 0 0 0 127 0" result="hardAlpha"></feColorMatrix>
        <feOffset dy="1"></feOffset>
        <feGaussianBlur stdDeviation="1"></feGaussianBlur>
        <feComposite in2="hardAlpha" operator="out"></feComposite>
        <feColorMatrix type="matrix" values="0 0 0 0 0.0627451 0 0 0 0 0.0941176 0 0 0 0 0.156863 0 0 0 0.06 0"></feColorMatrix>
        <feBlend mode="normal" in2="effect1_dropShadow_0_1" result="effect2_dropShadow_0_1"></feBlend>
        <feBlend mode="normal" in="SourceGraphic" in2="effect2_dropShadow_0_1" result="shape"></feBlend>
      </filter>
      <clipPath id="clip0_0_1">
        <rect width="1440" height="1204" fill="white" transform="translate(-32 -98)"></rect>
      </clipPath>
    </defs>
  </symbol>
  <symbol fill="none" xmlns="http://www.w3.org/2000/svg" viewBox="0 0 24 24" id="colorfilter">
    <path d="M14 16C14 17.77 13.23 19.37 12 20.46C10.94 21.42 9.54 22 8 22C4.69 22 2 19.31 2 16C2 13.9753 3.01397 12.1814 4.5554 11.0974C4.80358 10.9228 5.1393 11.0422 5.27324 11.3145C6.21715 13.2332 7.95419 14.67 10.02 15.23C10.65 15.41 11.31 15.5 12 15.5C12.4872 15.5 12.9539 15.4538 13.4074 15.3688C13.6958 15.3147 13.9828 15.4995 13.9955 15.7926C13.9985 15.8621 14 15.9314 14 16Z" fill="white"></path>
    <path d="M18 8C18 8.78 17.85 9.53 17.58 10.21C16.89 11.95 15.41 13.29 13.58 13.79C13.08 13.93 12.55 14 12 14C11.45 14 10.92 13.93 10.42 13.79C8.59 13.29 7.11 11.95 6.42 10.21C6.15 9.53 6 8.78 6 8C6 4.69 8.69 2 12 2C15.31 2 18 4.69 18 8Z" fill="white"></path>
    <path d="M22 16C22 19.31 19.31 22 16 22C15.2555 22 14.5393 21.8643 13.8811 21.6141C13.5624 21.493 13.503 21.0851 13.7248 20.8263C14.8668 19.4938 15.5 17.786 15.5 16C15.5 15.66 15.47 15.32 15.42 15C15.3902 14.8156 15.4844 14.6342 15.6478 14.5438C16.9719 13.8107 18.0532 12.6876 18.727 11.3153C18.8609 11.0428 19.1968 10.9231 19.4452 11.0978C20.9863 12.1819 22 13.9756 22 16Z" fill="white"></path>
  </symbol>
  <symbol fill="none" xmlns="http://www.w3.org/2000/svg" viewBox="0 0 24 24" id="task">
    <path d="M20 19.2601H10.93C10.48 19.2601 10.11 18.8901 10.11 18.4401C10.11 17.9901 10.48 17.6201 10.93 17.6201H20C20.45 17.6201 20.82 17.9901 20.82 18.4401C20.82 18.9001 20.45 19.2601 20 19.2601Z" fill="white"></path>
    <path d="M20 12.9701H10.93C10.48 12.9701 10.11 12.6001 10.11 12.1501C10.11 11.7001 10.48 11.3301 10.93 11.3301H20C20.45 11.3301 20.82 11.7001 20.82 12.1501C20.82 12.6001 20.45 12.9701 20 12.9701Z" fill="white"></path>
    <path d="M20 6.67003H10.93C10.48 6.67003 10.11 6.30003 10.11 5.85003C10.11 5.40003 10.48 5.03003 10.93 5.03003H20C20.45 5.03003 20.82 5.40003 20.82 5.85003C20.82 6.30003 20.45 6.67003 20 6.67003Z" fill="white"></path>
    <path d="M4.90999 8.02992C4.68999 8.02992 4.47999 7.93992 4.32999 7.78992L3.41999 6.87992C3.09999 6.55992 3.09999 6.03992 3.41999 5.71992C3.73999 5.39992 4.25999 5.39992 4.57999 5.71992L4.90999 6.04992L7.04999 3.90992C7.36999 3.58992 7.88999 3.58992 8.20999 3.90992C8.52999 4.22992 8.52999 4.74992 8.20999 5.06992L5.48999 7.78992C5.32999 7.93992 5.12999 8.02992 4.90999 8.02992Z" fill="white"></path>
    <path d="M4.90999 14.33C4.69999 14.33 4.48999 14.25 4.32999 14.09L3.41999 13.18C3.09999 12.86 3.09999 12.34 3.41999 12.02C3.73999 11.7 4.25999 11.7 4.57999 12.02L4.90999 12.35L7.04999 10.21C7.36999 9.88997 7.88999 9.88997 8.20999 10.21C8.52999 10.53 8.52999 11.05 8.20999 11.37L5.48999 14.09C5.32999 14.25 5.11999 14.33 4.90999 14.33Z" fill="white"></path>
    <path d="M4.90999 20.33C4.69999 20.33 4.48999 20.25 4.32999 20.09L3.41999 19.18C3.09999 18.86 3.09999 18.34 3.41999 18.02C3.73999 17.7 4.25999 17.7 4.57999 18.02L4.90999 18.35L7.04999 16.21C7.36999 15.89 7.88999 15.89 8.20999 16.21C8.52999 16.53 8.52999 17.05 8.20999 17.37L5.48999 20.09C5.32999 20.25 5.11999 20.33 4.90999 20.33Z" fill="white"></path>
  </symbol>

    <symbol fill="none" xmlns="http://www.w3.org/2000/svg" viewBox="0 0 24 24" id="strongbox-2">
      <path d="M16.1915 2H7.81146C4.17146 2 2.00146 4.17 2.00146 7.81V16.18C2.00146 19.83 4.17146 22 7.81146 22H16.1815C19.8215 22 21.9915 19.83 21.9915 16.19V7.81C22.0015 4.17 19.8315 2 16.1915 2ZM19.0015 8.24C19.0015 8.79 18.5515 9.24 18.0015 9.24H16.0015C15.5915 9.24 15.2515 9.58 15.2515 9.99C15.2515 10.41 15.5915 10.74 16.0015 10.74H18.0015C18.5515 10.74 19.0015 11.19 19.0015 11.74V12.25C19.0015 12.8 18.5515 13.25 18.0015 13.25H16.0015C15.5915 13.25 15.2515 13.59 15.2515 14C15.2515 14.41 15.5915 14.75 16.0015 14.75H18.0015C18.5515 14.75 19.0015 15.2 19.0015 15.75V16C19.0015 17.66 17.6615 19 16.0015 19H8.00146C6.34146 19 5.00146 17.66 5.00146 16V15.5C5.00146 14.95 5.45146 14.5 6.00146 14.5H7.48146C8.95146 14.5 10.1215 13.24 9.97147 11.74C9.84146 10.44 8.65146 9.5 7.34146 9.5H6.00146C5.45146 9.5 5.00146 9.05 5.00146 8.5V8C5.00146 6.34 6.34146 5 8.00146 5H16.0015C17.6615 5 19.0015 6.34 19.0015 8V8.24ZM5.00146 12C5.00146 11.45 5.45146 11 6.00146 11H7.00146C7.55147 11 8.00146 11.45 8.00146 12C8.00146 12.55 7.55147 13 7.00146 13H6.00146C5.45146 13 5.00146 12.55 5.00146 12Z" fill="white"></path>
    </symbol>

    <symbol fill="none" xmlns="http://www.w3.org/2000/svg" viewBox="0 0 24 24" id="slider-horizontal">
      <path d="M3.5 5.06006V18.9401C3.5 19.3501 3.16 19.6901 2.75 19.6901C2.34 19.6901 2 19.3501 2 18.9401V5.06006C2 4.65006 2.34 4.31006 2.75 4.31006C3.16 4.31006 3.5 4.65006 3.5 5.06006Z" fill="white"></path>
      <path d="M22 5.06006V18.9401C22 19.3501 21.66 19.6901 21.25 19.6901C20.84 19.6901 20.5 19.3501 20.5 18.9401V5.06006C20.5 4.65006 20.84 4.31006 21.25 4.31006C21.66 4.31006 22 4.65006 22 5.06006Z" fill="white"></path>
      <path d="M8 21.25H16C17.66 21.25 19 19.91 19 18.25V5.75C19 4.09 17.66 2.75 16 2.75H8C6.34 2.75 5 4.09 5 5.75V18.25C5 19.91 6.34 21.25 8 21.25Z" fill="white"></path>
    </symbol>


    <symbol fill="none" xmlns="http://www.w3.org/2000/svg" viewBox="0 0 24 24" id="shopping-cart">
      <path d="M16.25 22.5C17.2165 22.5 18 21.7165 18 20.75C18 19.7835 17.2165 19 16.25 19C15.2835 19 14.5 19.7835 14.5 20.75C14.5 21.7165 15.2835 22.5 16.25 22.5Z" fill="white"></path>
      <path d="M8.25 22.5C9.2165 22.5 10 21.7165 10 20.75C10 19.7835 9.2165 19 8.25 19C7.2835 19 6.5 19.7835 6.5 20.75C6.5 21.7165 7.2835 22.5 8.25 22.5Z" fill="white"></path>
      <path d="M4.84 3.94L4.64 6.39C4.6 6.86 4.97 7.25 5.44 7.25H20.75C21.17 7.25 21.52 6.93 21.55 6.51C21.68 4.74 20.33 3.3 18.56 3.3H6.27C6.17 2.86 5.97 2.44 5.66 2.09C5.16 1.56 4.46 1.25 3.74 1.25H2C1.59 1.25 1.25 1.59 1.25 2C1.25 2.41 1.59 2.75 2 2.75H3.74C4.05 2.75 4.34 2.88 4.55 3.1C4.76 3.33 4.86 3.63 4.84 3.94Z" fill="white"></path>
      <path d="M20.51 8.75H5.16999C4.74999 8.75 4.40999 9.07 4.36999 9.48L4.00999 13.83C3.86999 15.54 5.20999 17 6.91999 17H18.04C19.54 17 20.86 15.77 20.97 14.27L21.3 9.6C21.34 9.14 20.98 8.75 20.51 8.75Z" fill="white"></path>
    </symbol>

    <symbol fill="none" xmlns="http://www.w3.org/2000/svg" viewBox="0 0 24 24" id="cards">
      <path d="M15.22 6.55005H5.78C5.5 6.55005 5.24 6.56005 5 6.57005C2.63 6.71005 2 7.58005 2 10.28V10.86C2 11.41 2.45 11.86 3 11.86H18C18.55 11.86 19 11.41 19 10.86V10.28C19 7.30005 18.24 6.55005 15.22 6.55005Z" fill="white"></path>
      <path d="M3 13.3601C2.45 13.3601 2 13.8101 2 14.3601V17.2701C2 20.2501 2.76 21.0001 5.78 21.0001H15.22C18.19 21.0001 18.97 20.2801 19 17.4301V14.3601C19 13.8101 18.55 13.3601 18 13.3601H3ZM6.96 18.5601H5.25C4.84 18.5601 4.5 18.2201 4.5 17.8101C4.5 17.4001 4.84 17.0601 5.25 17.0601H6.97C7.38 17.0601 7.72 17.4001 7.72 17.8101C7.72 18.2201 7.38 18.5601 6.96 18.5601ZM12.55 18.5601H9.11C8.7 18.5601 8.36 18.2201 8.36 17.8101C8.36 17.4001 8.7 17.0601 9.11 17.0601H12.55C12.96 17.0601 13.3 17.4001 13.3 17.8101C13.3 18.2201 12.97 18.5601 12.55 18.5601Z" fill="white"></path>
      <path d="M22.0001 13.3301V8.0901C22.0001 4.9601 20.2101 3.6001 17.5101 3.6001H8.58011C7.82011 3.6001 7.14011 3.7101 6.54011 3.9401C6.07011 4.1101 5.65011 4.3601 5.31011 4.6901C5.13011 4.8601 5.27011 5.1401 5.53011 5.1401H16.4001C18.6501 5.1401 20.4701 6.9601 20.4701 9.2101V16.3801C20.4701 16.6301 20.7401 16.7701 20.9201 16.5901C21.6101 15.8601 22.0001 14.7901 22.0001 13.3301Z" fill="white"></path>
    </symbol>

    <symbol fill="none" xmlns="http://www.w3.org/2000/svg" viewBox="0 0 24 24" id="arrow-2">
      <path d="M21.75 6.72995C21.75 6.52995 21.67 6.33995 21.53 6.19995L17.81 2.47995C17.52 2.18995 17.04 2.18995 16.75 2.47995C16.46 2.76995 16.46 3.24995 16.75 3.53995L19.2 5.98995H3C2.59 5.98995 2.25 6.32995 2.25 6.73995C2.25 7.14995 2.59 7.47995 3 7.47995H19.19L16.75 9.91995C16.46 10.21 16.46 10.69 16.75 10.98C16.9 11.13 17.09 11.2 17.28 11.2C17.47 11.2 17.66 11.13 17.81 10.98L21.52 7.26995C21.59 7.19995 21.65 7.10995 21.69 7.00995C21.69 6.99995 21.69 6.98995 21.7 6.97995C21.73 6.89995 21.75 6.81995 21.75 6.72995Z" fill="white"></path>
      <path d="M21 16.52H4.81L7.25 14.08C7.54 13.79 7.54 13.31 7.25 13.02C6.96 12.73 6.48 12.73 6.19 13.02L2.48 16.73C2.41 16.8 2.35 16.89 2.31 16.99C2.31 17 2.31 17.01 2.3 17.02C2.27 17.1 2.25 17.19 2.25 17.28C2.25 17.48 2.33 17.67 2.47 17.81L6.19 21.53C6.34 21.68 6.53 21.75 6.72 21.75C6.91 21.75 7.1 21.68 7.25 21.53C7.54 21.24 7.54 20.76 7.25 20.47L4.8 18.02H21C21.41 18.02 21.75 17.68 21.75 17.27C21.75 16.86 21.41 16.52 21 16.52Z" fill="white"></path>
    </symbol>

    <symbol fill="none" xmlns="http://www.w3.org/2000/svg" viewBox="0 0 24 24" id="message-question">
      <path d="M17 2.43005H7C4 2.43005 2 4.43005 2 7.43005V13.4301C2 16.4301 4 18.4301 7 18.4301V20.5601C7 21.3601 7.89 21.8401 8.55 21.3901L13 18.4301H17C20 18.4301 22 16.4301 22 13.4301V7.43005C22 4.43005 20 2.43005 17 2.43005ZM12 14.6001C11.58 14.6001 11.25 14.2601 11.25 13.8501C11.25 13.4401 11.58 13.1001 12 13.1001C12.42 13.1001 12.75 13.4401 12.75 13.8501C12.75 14.2601 12.42 14.6001 12 14.6001ZM13.26 10.4501C12.87 10.7101 12.75 10.8801 12.75 11.1601V11.3701C12.75 11.7801 12.41 12.1201 12 12.1201C11.59 12.1201 11.25 11.7801 11.25 11.3701V11.1601C11.25 10.0001 12.1 9.43005 12.42 9.21005C12.79 8.96005 12.91 8.79005 12.91 8.53005C12.91 8.03005 12.5 7.62005 12 7.62005C11.5 7.62005 11.09 8.03005 11.09 8.53005C11.09 8.94005 10.75 9.28005 10.34 9.28005C9.93 9.28005 9.59 8.94005 9.59 8.53005C9.59 7.20005 10.67 6.12005 12 6.12005C13.33 6.12005 14.41 7.20005 14.41 8.53005C14.41 9.67005 13.57 10.2401 13.26 10.4501Z" fill="white"></path>
    </symbol>

</svg>
